<svg
  xmlns="http://www.w3.org/2000/svg">
  <symbol viewBox="0 0 26 22" id="back">
    <title>back</title>
    <path d="m15.914 17c-.256 0-.512-.098-.707-.293l-5.707-5.707 5.707-5.707c.391-.391 1.023-.391 1.414 0s.391 1.023 0 1.414l-4.293 4.293 4.293 4.293c.391.391.391 1.023 0 1.414-.195.195-.451.293-.707.293"/>
  </symbol>
  <symbol viewBox="0 0 13 11" id="close">
    <title>close</title>
    <path fill-rule="evenodd" d="m8 5v-1h1v-1h1v-1h1v-1h1v-1h-2v1h-1v1h-1v1h-1v1h-2v-1h-1v-1h-1v-1h-1v-1h-2v1h1v1h1v1h1v1h1v1h1v1h-1v1h-1v1h-1v1h-1v1h-1v1h2v-1h1v-1h1v-1h1v-1h2v1h1v1h1v1h1v1h2v-1h-1v-1h-1v-1h-1v-1h-1v-1h-1v-1z"/>
  </symbol>
  <symbol viewBox="0 0 8 4" id="head_arr">
    <title>head_arr</title>
    <path fill-rule="evenodd" d="m0 0v1h1v1h1v1h1v1h2v-1h1v-1h1v-1h1v-1z"/>
  </symbol>
  <symbol viewBox="0 0 112 20" id="logo">
    <title>logo</title>
    <path d="m32.632 10.444h-.005c.022-.036.022-.096.005-.137l-2.21-3.864c-.019-.041-.078-.078-.114-.078h-1.29c-.1 0-.178.114-.118.214l2.169 3.805-2.188 3.81c-.059.078.019.215.119.215h1.289c.055 0 .096-.037.114-.078l2.224-3.868c0-.019 0-.019.005-.019"/>
    <path d="m36.869 14.404h1.285c.096 0 .16-.137.114-.214l-2.183-3.81 2.183-3.81c.046-.096-.019-.214-.114-.214h-1.285c-.041 0-.1.041-.118.077l-1.449 2.542-1.463-2.542c-.018-.036-.059-.077-.113-.077h-1.271c-.119 0-.178.118-.123.214l2.174 3.81-2.174 3.81c-.055.077.004.214.123.214h1.271c.055 0 .096-.041.113-.077l1.463-2.543 1.449 2.543c.019.036.077.077.118.077"/>
    <path d="m57.648 10.362h-10.954c-.178 0-.338.077-.451.219l-1.153 1.6-1.135 1.563c-.077.101 0 .232.101.232h1.271c.096 0 .195-.055.255-.132l1.659-2.246h2.306l-4.143 5.687c-.06.091 0 .228.137.228h1.249c.1 0 .195-.063.255-.137l4.215-5.777h2.365l-4.156 5.687c-.059.091 0 .228.133.228h1.271c.096 0 .178-.045.236-.118l4.215-5.796h.779.688v3.499c0 .547-.433.966-.979.966h-1.171c-.096 0-.191.046-.232.146l-.784 1.057c-.077.109 0 .246.118.246h2.069c1.33 0 2.424-1.084 2.424-2.415v-4.165c-.004-.317-.259-.572-.588-.572"/>
    <path d="m40.09 3.235h-13.03c-.392 0-.706.31-.706.72v13.419c0 .092.059.155.154.155h1.112c.082 0 .159-.063.159-.155v-12.712h11.579v10.454c0 .547-.446.984-.976.984h-.801c-.096 0-.173.036-.232.127l-.82 1.112c-.059.073 0 .191.114.191h1.74c1.309 0 2.384-1.058 2.402-2.36h.018v-11.214c0-.406-.328-.72-.72-.72"/>
    <path d="m46.548 9.232h10.604c.314 0 .588-.27.588-.565v-5.04c0-.314-.273-.565-.588-.565h-10.604c-.31 0-.564.255-.564.565v5.04c-.0001.296.254.565.564.565m.88-5.02h8.863v1.367h-8.863v-1.367m0 2.502h8.863v1.367h-8.863v-1.367"/>
    <path d="m63.723 5.136h10.755c.455 0 .802-.351.802-.802v-.41c0-.096-.073-.178-.183-.178h-12.01c-.109 0-.2.082-.2.196v.355c0 .465.364.839.838.839"/>
    <path d="m100.31 11.634c-.292 0-.547.137-.693.369-.692 1.057-1.658 2.967-2.624 4.497-.073.128 0 .311.164.311h.911c.273 0 .547-.137.711-.374 1.075-1.74 2.078-3.609 2.661-4.589.055-.096 0-.214-.128-.214h-1"/>
    <path d="m93.85 7.843h-4.174l1.55-2.716h.856c.455 0 .838-.369.838-.838v-.388c0-.082-.091-.16-.164-.16h-5.322l-.656-1.13c-.055-.1-.164-.159-.291-.159h-1.131c-.109 0-.2.118-.127.219l.602 1.071h-5.396c-.091 0-.183.078-.183.178v.369c0 .469.383.838.839.838h.856l1.55 2.716h-4.156c-.091 0-.2.077-.2.195v.369c0 .451.383.82.838.82h13.252c.419 0 .802-.369.802-.802v-.387c-.0001-.118-.11-.195-.183-.195m-5.76 0h-3.01l-1.549-2.716h6.088l-1.531 2.716"/>
    <path d="m111.13 9.523v-.41c0-.077-.073-.137-.164-.137h-5.797v-2.988c0-.096-.073-.155-.164-.155h-.455c-.456 0-.82.369-.82.82v2.323h-4.794l.474-3.631c4.083-.178 8.239-.688 9.952-.898.438-.063.747-.451.675-.897l-.055-.433c0-.077-.092-.137-.164-.118-.875.118-6.106.802-11.03.998-.364.018-.638.273-.674.606l-.639 4.975c-.019.196.036.393.146.547.146.142.347.237.528.237h5.578v4.726c0 .547-.456.975-1 .975h-.237c-.091 0-.2.055-.273.146l-.729 1.029c-.091.119 0 .273.128.273h1.111c1.349 0 2.442-1.094 2.442-2.424v-4.726h5.122c.457.0001.84-.373.84-.838"/>
    <path d="m111.53 16.491c-.947-1.521-1.932-3.436-2.606-4.488-.164-.237-.419-.374-.692-.374h-1c-.109 0-.182.118-.127.219.564.976 1.585 2.849 2.679 4.58.146.236.401.383.675.383h.93c.144 0 .254-.183.144-.32"/>
    <path d="m76.35 8.544h-14.545c-.091 0-.163.06-.163.155v.373c0 .47.382.839.838.839h3.791l-3.444 6.562c-.092.155-.109.355-.073.529.091.291.364.482.675.482h11.61c.146 0 .31-.036.438-.146.255-.2.328-.528.2-.802l-1.896-3.642c-.036-.072-.091-.113-.164-.113h-1.111c-.164 0-.256.137-.183.273l1.622 3.062h-9.405l3.281-6.206h7.91c.438 0 .766-.351.766-.779v-.432c-.0001-.095-.056-.155-.147-.155"/>
    <path d="m91.57 10.362h-9.988c-.383 0-.692.296-.692.688v5.777c0 .374.31.684.692.684h9.988c.401 0 .711-.31.711-.684v-5.777c0-.392-.309-.688-.711-.688m-.728 5.865h-8.531v-1.663h8.531v1.663m0-2.935h-8.531v-1.658h8.531v1.658"/>
    <path d="m11.09 8.604c-.082-.256-.16-.528-.237-.784-.178.023-.36.082-.542.155-.67.26-1.199.824-1.381 1.485-.074.214-.092.433-.074.665.041.451.282.88.643 1.131.219.159.574.296 1.048.159.251-.06.475-.214.629-.392.338-.451.301-.994.201-1.367-.082-.333-.191-.683-.287-1.052m3.996 4.958c-.998 1.608-2.926 2.638-4.898 2.638-3.331 0-6.02-2.692-6.02-6.01 0-.292.027-.588.059-.898.036-.233.095-.47.155-.702.068-.219.137-.451.223-.665.1-.215.205-.429.314-.625.109-.195.232-.41.383-.588.123-.191.274-.369.438-.542.146-.16.314-.333.487-.474.187-.155.365-.292.556-.429.187-.137.392-.255.588-.351.118-.06.237-.119.351-.178.068-.017.128-.053.196-.076.333-.137.715.023.852.369.137.337-.022.725-.359.861-.056.018-.11.041-.151.059-.091.037-.178.078-.274.137-.155.078-.31.178-.47.273-.14.1-.29.214-.418.328-.146.119-.269.238-.388.374-.118.137-.237.274-.346.428-.096.142-.205.297-.292.451-.077.156-.164.333-.232.488-.069.177-.137.351-.187.529-.041.173-.087.351-.118.547-.027.232-.045.446-.045.684 0 2.597 2.105 4.707 4.702 4.707 1.522 0 3.01-.802 3.773-2.032.875-1.403.643-3.263-.528-4.356-.328-.328-.743-.542-1.189-.661.036.137.072.273.113.41.096.351.21.738.297 1.071.236.938.086 1.818-.434 2.483-.332.428-.788.761-1.33.897-.743.196-1.504.077-2.142-.374-.684-.469-1.126-1.248-1.198-2.087-.037-.392 0-.783.104-1.152.296-1.058 1.13-1.95 2.183-2.347.219-.096.456-.155.697-.215-.041-.095-.096-.31-.128-.428-.305-1.13.21-2.128 1.299-2.479.265-.101.565-.137.848-.101.137.019.269.041.392.078.251.082.506.219.725.41.114.1.21.196.292.314 0 .018 0 .018 0 .018.014.018.019.023.019.041.055.078.077.178.077.292 0 .369-.301.666-.665.666-.174 0-.338-.078-.447-.178-.072-.078-.141-.155-.219-.214-.072-.059-.159-.1-.25-.118-.096-.037-.183-.037-.273-.019-.196.037-.388.155-.47.333-.027.036-.046.077-.06.137-.059.155-.036.333.019.487.06.214.123.488.183.684.916.077 1.795.451 2.475 1.075 1.64 1.545 1.954 4.065.737 6.04m-5.096-13.57c-5.519 0-9.998 4.47-9.998 9.998 0 5.518 4.479 10 9.998 10 5.509 0 9.997-4.484 9.997-10 0-5.528-4.488-9.998-9.997-9.998"/>
  </symbol>
  <symbol viewBox="0 0 13 11" id="mini">
    <title>mini</title>
    <path d="M3,8h1V7H3V8z M4,7h1V6H4V7z M5,6h1V5H5V6z
				 M7,4H6v1h1V4z M8,3H7v1h1V3z M0,6v5h5L3,9V8H2L0,6z M0,0v4h1V1h11v9H7v1h6V0H0z" fill-rule="evenodd"/>
  </symbol>
  <symbol viewBox="-48 3 16 16" id="msg">
    <title>msg</title>
    <path d="m-34 5h-12c-1.1 0-2 .9-2 2v8c0 1.1.9 2 2 2h12c1.1 0 2-.9 2-2v-8c0-1.1-.9-2-2-2m-12 1h12c.4 0 .8.2.9.6l-6.9 4.6-6.9-4.6c.1-.4.5-.6.9-.6m12 10h-12c-.6 0-1-.4-1-1v-7.3l6.7 4.5c.1.1.2.1.3.1s.2 0 .3-.1l6.7-4.5v7.3c0 .6-.4 1-1 1"/>
  </symbol>
  <symbol viewBox="0 0 26 22" id="next">
    <title>next</title>
    <path d="m11 17c.256 0 .512-.098.707-.293l5.707-5.707-5.707-5.707c-.391-.391-1.023-.391-1.414 0s-.391 1.023 0 1.414l4.293 4.293-4.293 4.293c-.391.391-.391 1.023 0 1.414.195.195.451.293.707.293"/>
  </symbol>
  <symbol viewBox="0 0 13 11" id="restore">
    <title>restore</title>
    <path d="m11 0h-7c-1.104 0-2 .896-2 2-1.104 0-2 .896-2 2v5c0 1.104.896 2 2 2h7c1.104 0 2-.896 2-2 1.104 0 2-.896 2-2v-5c0-1.104-.896-2-2-2m-1 9c0 .552-.448 1-1 1h-7c-.551 0-1-.448-1-1v-5c0-.551.449-1 1-1h7c.552 0 1 .449 1 1v5m2-2c0 .552-.448 1-1 1v-4c0-1.104-.896-2-2-2h-6c0-.551.449-1 1-1h7c.552 0 1 .449 1 1v5"/>
  </symbol>
  <symbol viewBox="0 0 13 13" id="search">
    <title>search</title>
    <path d="m12.854 12.146l-3.128-3.127c.795-.954 1.274-2.18 1.274-3.519 0-3.038-2.462-5.5-5.5-5.5s-5.5 2.462-5.5 5.5 2.462 5.5 5.5 5.5c1.339 0 2.565-.479 3.519-1.274l3.128 3.128c.097.097.225.146.353.146s.256-.049.354-.146c.195-.196.195-.512 0-.708m-7.354-2.146c-2.481 0-4.5-2.02-4.5-4.5s2.02-4.5 4.5-4.5 4.5 2.02 4.5 4.5c0 1.061-.384 2.023-1 2.793-.209.262-.445.498-.707.707-.77.616-1.732 1-2.793 1"/>
  </symbol>
  <symbol viewBox="0 0 16 15" id="set">
    <title>set</title>
    <path d="m7.5 5c-1.379 0-2.5 1.121-2.5 2.5s1.121 2.5 2.5 2.5 2.5-1.121 2.5-2.5-1.121-2.5-2.5-2.5m0 4c-.827 0-1.5-.673-1.5-1.5s.673-1.5 1.5-1.5 1.5.673 1.5 1.5-.673 1.5-1.5 1.5m5.492-.862c.024-.21.04-.422.04-.638 0-.216-.016-.428-.04-.638l1.476-1.665c.143-.161.167-.396.059-.582l-.999-1.73c-.09-.157-.257-.25-.434-.25-.033 0-.066.003-.099.001l-2.189.447c-.339-.252-.704-.47-1.097-.64l-.704-2.11c-.068-.204-.26-.342-.474-.342h-2.062c-.214 0-.406.138-.474.342l-.704 2.11c-.392.17-.758.387-1.097.64l-2.189-.448c-.033-.007-.066-.001-.099-.001-.176 0-.344.093-.434.25l-.999 1.73c-.107.188-.083.422.06.583l1.476 1.665c-.025.21-.041.422-.041.638 0 .216.016.428.04.638l-1.475 1.665c-.143.161-.167.396-.059.582l.999 1.73c.09.157.257.25.433.25.033 0 .066-.003.1-.001l2.189-.447c.262.195.54.367.835.513l.847 2.254c.072.196.258.325.466.325h2.313c.208 0 .395-.129.468-.324l.847-2.254c.294-.147.573-.318.835-.513l2.189.447c.033.007.066.001.1.001.176 0 .343-.093.433-.25l.999-1.73c.109-.187.084-.421-.059-.582l-1.476-1.666m-.151 3.165l-1.835-.375-.438-.09-.359.267c-.215.16-.445.302-.683.42l-.352.175-.139.37-.725 1.93h-1.62l-.725-1.93-.138-.368-.352-.175c-.238-.119-.468-.26-.683-.42l-.359-.267-.438.09-1.835.375-.64-1.109 1.237-1.396.296-.335-.051-.443c-.023-.193-.034-.364-.034-.522 0-.158.011-.329.034-.522l.051-.444-.296-.335-1.237-1.395.639-1.107 1.835.375.438.089.359-.267c.289-.216.591-.392.897-.524l.41-.178.141-.424.59-1.768h1.341l.59 1.768.141.424.41.178c.306.133.608.309.897.524l.359.267.438-.089 1.835-.375.639 1.107-1.237 1.396-.296.335.051.444c.023.193.034.364.034.522 0 .158-.011.329-.034.522l-.051.444.296.335 1.237 1.396-.638 1.105"/>
  </symbol>
  <symbol viewBox="-48 3 16 16" id="skin">
    <title>skin</title>
    <path d="m-43 5.1c.6 1 1.7 1.9 3 1.9s2.4-.9 3-1.9c.1 0 .2.1.3.2.4.2 1 .5 1.6.9l1.9 1c-.2.4-.4 1-.6 1.4l-.8-.4c-.1-.1-.3-.1-.4-.1-.2 0-.4.1-.5.2-.3.2-.5.5-.5.8v7c0 .4-.6 1-1 1h-3-3c-.4 0-1-.6-1-1v-7c0-.3-.2-.7-.5-.8-.2-.1-.3-.2-.5-.2-.1 0-.3 0-.4.1l-.8.4c-.2-.4-.4-.9-.6-1.4l1.9-1c.6-.3 1.2-.6 1.6-.9.1-.1.2-.1.3-.2m6-1.1c-.3 0-.6.1-.7.3-.4.8-1.3 1.6-2.3 1.6s-1.9-.8-2.3-1.6c-.2-.2-.4-.3-.7-.3l-4.8 2.5c-.1.1-.2.2-.2.3v.1c.3.7 1.1 2.6 1.1 2.6.1.1.2.2.3.2s.1 0 .2 0l1.4-.6v7c0 1 1 2 2 2h3 3c1 0 2-1 2-2v-7l1.4.6c.1 0 .1 0 .2 0s.2-.1.3-.2c0 0 .8-1.8 1.1-2.6v-.1c0-.1 0-.3-.2-.3 0 0-4.8-2.5-4.8-2.5z"/>
  </symbol>
  <symbol viewBox="0 0 13 11" id="zoomin">
    <title>zoomin</title>
    <path d="m11 1c.551 0 1 .449 1 1v7c0 .551-.449 1-1 1h-9c-.551 0-1-.449-1-1v-7c0-.551.449-1 1-1h9m0-1h-9c-1.105 0-2 .895-2 2v7c0 1.105.895 2 2 2h9c1.105 0 2-.895 2-2v-7c0-1.105-.895-2-2-2z"/>
  </symbol>
  <symbol viewBox="0 0 13 11" id="zoomout">
    <title>zoomout</title>
    <path d="M0,5h13v1H0V5z" fill-rule="evenodd"/>
  </symbol>
</svg>